<svg width="512" height="512" viewBox="0 0 512 512" fill="none" xmlns="http://www.w3.org/2000/svg">
<path d="M151.5 251C108.5 248.5 88 198 92.9998 175.5" stroke="white" stroke-width="15"/>
<path d="M92.4971 337C89.2935 284.534 131.909 254.922 152.684 258.897" stroke="white" stroke-width="15"/>
<path d="M421.479 173C426 220.5 383.979 249 363.5 250.013" stroke="white" stroke-width="15"/>
<path d="M363 261C407 265 428.5 320 419.161 338.871" stroke="white" stroke-width="15"/>
<path d="M60.5 86L113.5 58.5L173.5 86M60.5 86L59 153.5L113.5 178.5M60.5 86L113.5 111M113.5 178.5L173.5 153.5V86M113.5 178.5V111M173.5 86L113.5 111" stroke="#F7E1C7" stroke-width="15"/>
<path d="M339.5 86.5L392.5 59L452.5 86.5M339.5 86.5L338 154L392.5 179M339.5 86.5L392.5 111.5M392.5 179L452.5 154V86.5M392.5 179V111.5M452.5 86.5L392.5 111.5" stroke="#F7E1C7" stroke-width="15"/>
<path d="M339.5 357.5L392.5 330L452.5 357.5M339.5 357.5L338 425L392.5 450M339.5 357.5L392.5 382.5M392.5 450L452.5 425V357.5M392.5 450V382.5M452.5 357.5L392.5 382.5" stroke="#F7E1C7" stroke-width="15"/>
<path d="M59.5 357.5L112.5 330L172.5 357.5M59.5 357.5L58 425L112.5 450M59.5 357.5L112.5 382.5M112.5 450L172.5 425V357.5M112.5 450V382.5M172.5 357.5L112.5 382.5" stroke="#F7E1C7" stroke-width="15"/>
<path d="M200.5 221.5L253.5 194L313.5 221.5M200.5 221.5L199 289L253.5 314M200.5 221.5L253.5 246.5M253.5 314L313.5 289V221.5M253.5 314V246.5M313.5 221.5L253.5 246.5" stroke="#F7E1C7" stroke-width="15"/>
<path d="M357.5 254.5C357.5 309.696 312.537 354.5 257 354.5C201.463 354.5 156.5 309.696 156.5 254.5C156.5 199.304 201.463 154.5 257 154.5C312.537 154.5 357.5 199.304 357.5 254.5Z" stroke="white" stroke-width="15"/>
</svg>
