<svg width="512" height="512" viewBox="0 0 512 512" fill="none" xmlns="http://www.w3.org/2000/svg">
<rect width="512" height="512" />
<path fill-rule="evenodd" clip-rule="evenodd" d="M196.381 395.829C196.381 387.608 195.834 379.352 196.496 371.184C197.783 355.218 192.306 342.658 182.091 330.194C170.907 316.548 160.886 301.315 153.521 285.306C133.992 242.869 143.219 203.15 171.11 167.92C200.165 131.191 239.867 120.615 284.155 131.358C328.964 142.234 357.932 172.26 366.849 217.104C372.759 246.786 370.272 277.252 348.511 302.568C340.855 311.485 333.631 321.285 328.673 331.835C323.196 343.46 318.274 356.215 317.162 368.82C315.204 391.048 316.739 413.549 315.989 435.901C315.389 454.133 297.783 471.219 279.772 471.704C264.812 472.101 249.825 471.898 234.848 471.792C213.343 471.634 196.857 455.818 196.09 434.199C195.631 421.426 196.01 408.619 196.01 395.82C196.134 395.829 196.257 395.829 196.381 395.829ZM301.065 405.823C301.065 390.369 299.583 376.556 301.514 363.236C303.226 351.425 307.266 339.368 312.955 328.862C319.376 317.007 329.264 307.084 336.815 295.767C370.113 245.824 356 186.223 304.249 156.189C266.982 134.56 220.347 142.746 192.226 165.521C166.17 186.62 146.165 233.167 165.323 271.598C172.203 285.403 180.777 298.36 188.416 311.803C195.128 323.614 201.153 335.83 208.439 347.253C210.75 350.887 216.051 354.707 220.064 354.804C235.536 355.192 251.043 353.957 266.549 353.657C272.662 353.525 280.892 351.831 280.865 361.543C280.839 371.14 272.697 369.517 266.523 369.552C248.837 369.667 231.152 369.596 212.373 369.596C212.373 391.842 211.226 413.717 212.814 435.381C213.722 447.818 221.432 457.424 236.056 457.679C247.929 457.891 259.802 458.341 271.683 458.2C292.808 457.944 303.067 444.748 298.807 420.333C280.715 420.333 262.104 420.756 243.536 420.015C239.443 419.856 235.509 415.64 231.505 413.285C235.651 410.806 239.717 406.361 243.96 406.167C262.139 405.355 280.389 405.823 301.065 405.823Z" fill="#F7E1C7"/>
<path fill-rule="evenodd" clip-rule="evenodd" d="M151.541 129.395C146.725 130.842 140.666 134.414 138.866 132.906C128.528 124.217 118.949 114.559 109.802 104.6C108.364 103.039 109.308 97.0408 111.187 95.3207C113.092 93.5831 118.861 93.0979 120.625 94.668C130.09 103.065 138.884 112.221 147.775 121.262C148.948 122.453 149.301 124.438 151.541 129.395Z" fill="white"/>
<path fill-rule="evenodd" clip-rule="evenodd" d="M366.63 135.098C365.757 130.758 362.74 124.646 364.46 122.652C373.316 112.429 383.204 103.079 393.251 93.9851C394.645 92.7237 399.805 93.6146 401.543 95.2729C403.324 96.9841 404.594 102.259 403.43 103.538C394.001 113.832 383.981 123.587 374.004 133.378C373.193 134.181 371.438 134.031 366.63 135.098Z" fill="white"/>
<path fill-rule="evenodd" clip-rule="evenodd" d="M264.09 65.7508C264.081 71.202 265.078 76.909 263.728 81.9985C262.82 85.4297 258.612 87.9789 255.887 90.9338C253.452 88.1553 249.139 85.5268 248.901 82.5807C248.054 71.7577 247.93 60.7671 248.91 49.9706C249.201 46.7687 254.008 43.9814 256.742 41C259.186 44.2637 262.829 47.2098 263.79 50.8703C265.025 55.5277 264.099 60.7583 264.09 65.7508Z" fill="white"/>
<path fill-rule="evenodd" clip-rule="evenodd" d="M422.655 248.228C419.074 247.848 415.122 248.254 412.026 246.834C409.662 245.749 406.663 242.018 407.042 240.051C407.572 237.272 410.879 233.03 413.146 232.933C424.851 232.43 436.636 232.686 448.332 233.568C451.022 233.762 453.448 237.493 455.997 239.601C453.007 241.939 450.22 245.89 446.991 246.287C439.009 247.257 430.805 246.605 422.69 246.605C422.681 247.143 422.664 247.69 422.655 248.228Z" fill="white"/>
<path fill-rule="evenodd" clip-rule="evenodd" d="M67.8462 249.91C63.8945 246.673 59.9428 243.444 56 240.198C60.3486 237.614 64.4943 233.327 69.0722 232.815C77.5224 231.88 86.3078 232.586 94.7845 233.803C98.4539 234.341 101.691 237.834 105.122 239.987C101.859 242.236 98.7715 246.046 95.3049 246.434C86.8194 247.378 78.1487 246.743 69.5486 246.743C68.984 247.802 68.4107 248.851 67.8462 249.91Z" fill="white"/>
<path fill-rule="evenodd" clip-rule="evenodd" d="M268.799 182.131C300.13 185.703 322.658 206.397 324.414 237.622C324.608 241.062 320.268 244.749 318.036 248.312C315.655 245.578 311.791 243.17 311.13 240.065C305.881 215.632 292.2 200.831 266.603 197.611C263.692 197.258 261.434 191.772 258.876 188.667C262.925 185.994 266.973 183.322 268.799 182.131Z" fill="white"/>
</svg>
