<svg width="512" height="512" viewBox="0 0 512 512" fill="none" xmlns="http://www.w3.org/2000/svg">
<circle cx="143" cy="355" r="32.5" stroke="#F7E1C7" stroke-width="15"/>
<circle cx="369" cy="321" r="32.5" stroke="#F7E1C7" stroke-width="15"/>
<circle cx="256" cy="435" r="32.5" stroke="#F7E1C7" stroke-width="15"/>
<path d="M76.0001 316.5C76.0001 316.5 21.4999 275.5 45.5001 217.5C69.5003 159.501 141.5 167 141.5 167C141.5 167 144.5 39.5003 260 42.0002C375.5 44.5 375.5 167 375.5 167C375.5 167 447 171 464 217.5C481 264 448 302 448 302" stroke="#F7E1C7" stroke-width="20" stroke-linecap="round"/>
<path d="M256 166V396.5" stroke="white" stroke-width="15"/>
<path d="M204 238.5L201.5 296.5L169 328" stroke="white" stroke-width="15"/>
<path d="M309 218.5V262.5L342 294" stroke="white" stroke-width="15"/>
</svg>
