<svg width="160" height="70" viewBox="0 0 160 70" fill="none" xmlns="http://www.w3.org/2000/svg">
<g clip-path="url(#clip0_1341_148)">
<path d="M43.9375 34.9061C43.9375 31.0572 47.0572 27.9375 50.9061 27.9375C54.755 27.9375 57.8747 31.0572 57.8747 34.9061C57.8747 38.755 54.755 41.8747 50.9061 41.8747C47.0572 41.8747 43.9375 38.755 43.9375 34.9061Z" fill="#C2C4D0"/>
<path d="M30 48.8426C30 44.9938 33.1197 41.874 36.9686 41.874H43.9372V48.8426C43.9372 52.6915 40.8175 55.8113 36.9686 55.8113C33.1197 55.8113 30 52.6915 30 48.8426Z" fill="#C2C4D0"/>
<path d="M43.9375 14V27.9372H50.9061C54.755 27.9372 57.8747 24.8175 57.8747 20.9686C57.8747 17.1197 54.755 14 50.9061 14H43.9375Z" fill="#C2C4D0"/>
<path d="M30 20.9686C30 24.8175 33.1197 27.9372 36.9686 27.9372H43.9372V14H36.9686C33.1197 14 30 17.1197 30 20.9686Z" fill="#C2C4D0"/>
<path d="M30 34.9061C30 38.755 33.1197 41.8747 36.9686 41.8747H43.9372V27.9375H36.9686C33.1197 27.9375 30 31.0572 30 34.9061Z" fill="#C2C4D0"/>
</g>
<path d="M71.1653 42.3623V27.8168H80.4835V30.0257H73.8003V33.9745H79.8443V36.1833H73.8003V42.3623H71.1653ZM82.7704 42.3623V31.4532H85.3415V42.3623H82.7704ZM84.063 29.9049C83.6559 29.9049 83.3055 29.77 83.0119 29.5001C82.7184 29.2255 82.5716 28.8964 82.5716 28.5129C82.5716 28.1246 82.7184 27.7955 83.0119 27.5257C83.3055 27.251 83.6559 27.1137 84.063 27.1137C84.475 27.1137 84.8254 27.251 85.1142 27.5257C85.4077 27.7955 85.5545 28.1246 85.5545 28.5129C85.5545 28.8964 85.4077 29.2255 85.1142 29.5001C84.8254 29.77 84.475 29.9049 84.063 29.9049ZM92.7296 46.6805C91.8063 46.6805 91.0132 46.555 90.3503 46.3041C89.6875 46.0579 89.1548 45.7264 88.7523 45.3097C88.3499 44.8931 88.0705 44.4314 87.9143 43.9248L90.2296 43.3637C90.3338 43.5768 90.4853 43.7875 90.6841 43.9958C90.883 44.2089 91.1505 44.3841 91.4867 44.5214C91.8276 44.6634 92.2561 44.7345 92.7722 44.7345C93.5014 44.7345 94.1051 44.5569 94.5833 44.2018C95.0615 43.8514 95.3006 43.2738 95.3006 42.4688V40.4021H95.1728C95.0402 40.6672 94.8461 40.9395 94.5904 41.2188C94.3394 41.4982 94.0056 41.7326 93.589 41.922C93.177 42.1114 92.6586 42.2061 92.0336 42.2061C91.1955 42.2061 90.4356 42.0096 89.7537 41.6166C89.0767 41.2188 88.5369 40.627 88.1344 39.841C87.7367 39.0503 87.5378 38.0607 87.5378 36.8722C87.5378 35.6743 87.7367 34.6634 88.1344 33.8396C88.5369 33.011 89.079 32.3836 89.7608 31.9575C90.4427 31.5266 91.2026 31.3112 92.0407 31.3112C92.6799 31.3112 93.2055 31.4201 93.6174 31.6379C94.034 31.8509 94.3655 32.109 94.6117 32.412C94.8579 32.7103 95.0449 32.992 95.1728 33.2572H95.3148V31.4532H97.8503V42.5399C97.8503 43.4726 97.6278 44.2444 97.1827 44.8552C96.7376 45.466 96.1292 45.9229 95.3574 46.2259C94.5857 46.529 93.7097 46.6805 92.7296 46.6805ZM92.7509 40.189C93.2954 40.189 93.7594 40.0564 94.143 39.7913C94.5265 39.5261 94.8177 39.145 95.0165 38.6478C95.2154 38.1507 95.3148 37.5541 95.3148 36.858C95.3148 36.1715 95.2154 35.5702 95.0165 35.0541C94.8224 34.538 94.5336 34.1379 94.1501 33.8538C93.7713 33.565 93.3049 33.4205 92.7509 33.4205C92.178 33.4205 91.6998 33.5697 91.3162 33.868C90.9327 34.1663 90.6439 34.5758 90.4498 35.0967C90.2556 35.6128 90.1586 36.1999 90.1586 36.858C90.1586 37.5257 90.2556 38.1104 90.4498 38.6123C90.6486 39.1095 90.9398 39.4977 91.3233 39.7771C91.7116 40.0517 92.1875 40.189 92.7509 40.189ZM100.485 42.3623V31.4532H102.943V33.3069H103.071C103.298 32.6819 103.674 32.1942 104.2 31.8438C104.725 31.4887 105.353 31.3112 106.082 31.3112C106.821 31.3112 107.443 31.4911 107.95 31.8509C108.461 32.2061 108.821 32.6914 109.029 33.3069H109.143C109.384 32.7008 109.792 32.2179 110.365 31.858C110.942 31.4935 111.626 31.3112 112.417 31.3112C113.421 31.3112 114.24 31.6284 114.874 32.2629C115.509 32.8973 115.826 33.823 115.826 35.0399V42.3623H113.248V35.4376C113.248 34.7605 113.068 34.2657 112.708 33.9532C112.348 33.636 111.908 33.4774 111.387 33.4774C110.767 33.4774 110.282 33.6715 109.931 34.0597C109.586 34.4433 109.413 34.9428 109.413 35.5583V42.3623H106.892V35.3311C106.892 34.7676 106.721 34.3178 106.38 33.9816C106.044 33.6454 105.604 33.4774 105.059 33.4774C104.69 33.4774 104.354 33.5721 104.051 33.7615C103.748 33.9461 103.506 34.2089 103.326 34.5498C103.146 34.886 103.056 35.279 103.056 35.7288V42.3623H100.485ZM121.574 42.5825C120.882 42.5825 120.26 42.4594 119.706 42.2132C119.157 41.9622 118.721 41.5929 118.399 41.1052C118.082 40.6175 117.923 40.0162 117.923 39.3012C117.923 38.6857 118.037 38.1767 118.264 37.7742C118.491 37.3718 118.801 37.0498 119.194 36.8083C119.587 36.5669 120.03 36.3846 120.523 36.2615C121.02 36.1336 121.533 36.0413 122.064 35.9845C122.703 35.9182 123.221 35.859 123.619 35.8069C124.017 35.7501 124.306 35.6649 124.486 35.5512C124.67 35.4329 124.763 35.2506 124.763 35.0043V34.9617C124.763 34.4267 124.604 34.0124 124.287 33.7188C123.97 33.4253 123.513 33.2785 122.916 33.2785C122.286 33.2785 121.787 33.4158 121.417 33.6904C121.053 33.9651 120.807 34.2894 120.679 34.6634L118.278 34.3225C118.468 33.6597 118.78 33.1057 119.216 32.6606C119.651 32.2108 120.184 31.8746 120.814 31.6521C121.443 31.4248 122.14 31.3112 122.902 31.3112C123.427 31.3112 123.951 31.3727 124.471 31.4958C124.992 31.6189 125.468 31.8225 125.899 32.1066C126.33 32.386 126.676 32.7671 126.936 33.2501C127.201 33.733 127.334 34.3367 127.334 35.0612V42.3623H124.862V40.8637H124.777C124.621 41.1668 124.4 41.4508 124.116 41.716C123.837 41.9764 123.484 42.1871 123.058 42.3481C122.637 42.5044 122.142 42.5825 121.574 42.5825ZM122.241 40.6933C122.757 40.6933 123.205 40.5915 123.584 40.3879C123.962 40.1795 124.254 39.9049 124.457 39.564C124.666 39.2231 124.77 38.8514 124.77 38.449V37.1634C124.689 37.2297 124.552 37.2913 124.358 37.3481C124.168 37.4049 123.955 37.4546 123.719 37.4972C123.482 37.5399 123.247 37.5777 123.015 37.6109C122.783 37.644 122.582 37.6724 122.412 37.6961C122.028 37.7482 121.685 37.8334 121.382 37.9518C121.079 38.0702 120.84 38.2359 120.665 38.449C120.489 38.6573 120.402 38.9272 120.402 39.2586C120.402 39.7321 120.575 40.0896 120.92 40.3311C121.266 40.5725 121.706 40.6933 122.241 40.6933Z" fill="#C2C4D0"/>
<defs>
<clipPath id="clip0_1341_148">
<rect width="27.8745" height="41.8117" fill="white" transform="translate(30 14)"/>
</clipPath>
</defs>
</svg>
