<svg width="160" height="70" viewBox="0 0 160 70" fill="none" xmlns="http://www.w3.org/2000/svg">
<g clip-path="url(#clip0_1341_101)">
<mask id="mask0_1341_101" style="mask-type:luminance" maskUnits="userSpaceOnUse" x="5" y="13" width="150" height="45">
<path d="M155 13H5V57.5946H155V13Z" fill="white"/>
</mask>
<g mask="url(#mask0_1341_101)">
<path d="M137.013 57.2444C136.625 57.2444 136.263 57.1403 135.927 56.9581L132.488 54.903C131.971 54.6168 132.23 54.5127 132.385 54.4607C133.083 54.2265 133.212 54.1745 133.936 53.7583C134.014 53.7062 134.117 53.7323 134.195 53.7844L136.832 55.3713C136.936 55.4233 137.065 55.4233 137.142 55.3713L147.458 49.3617C147.561 49.3096 147.614 49.2056 147.614 49.0756V37.0825C147.614 36.9525 147.561 36.8484 147.458 36.7964L137.142 30.8129C137.039 30.7608 136.91 30.7608 136.832 30.8129L126.516 36.7964C126.413 36.8484 126.361 36.9784 126.361 37.0825V49.0756C126.361 49.1796 126.413 49.3096 126.516 49.3617L129.334 51.0007C130.86 51.7811 131.816 50.8706 131.816 49.96V38.1231C131.816 37.9671 131.946 37.811 132.127 37.811H133.445C133.6 37.811 133.755 37.941 133.755 38.1231V49.96C133.755 52.0153 132.644 53.2119 130.705 53.2119C130.11 53.2119 129.645 53.2119 128.326 52.5617L125.611 51.0007C124.939 50.6104 124.525 49.8821 124.525 49.1015V37.1085C124.525 36.328 124.939 35.5996 125.611 35.2094L135.927 29.1999C136.574 28.8357 137.453 28.8357 138.099 29.1999L148.415 35.2094C149.087 35.5996 149.5 36.328 149.5 37.1085V49.1015C149.5 49.8821 149.087 50.6104 148.415 51.0007L138.099 57.0102C137.789 57.1403 137.401 57.2444 137.013 57.2444Z" fill="#C2C4D0"/>
<path d="M140.219 48.9971C135.693 48.9971 134.763 46.9159 134.763 45.1468C134.763 44.9907 134.892 44.8347 135.073 44.8347H136.417C136.572 44.8347 136.702 44.9387 136.702 45.0948C136.909 46.4736 137.503 47.1501 140.244 47.1501C142.416 47.1501 143.347 46.6557 143.347 45.4851C143.347 44.8087 143.087 44.3144 139.701 43.9762C136.883 43.6899 135.125 43.0656 135.125 40.8022C135.125 38.6951 136.883 37.4463 139.83 37.4463C143.14 37.4463 144.769 38.591 144.975 41.0885C144.975 41.1666 144.95 41.2445 144.898 41.3226C144.846 41.3747 144.769 41.4267 144.69 41.4267H143.32C143.191 41.4267 143.062 41.3226 143.036 41.1925C142.725 39.7617 141.924 39.2935 139.804 39.2935C137.426 39.2935 137.141 40.1259 137.141 40.7502C137.141 41.5047 137.477 41.7389 140.683 42.1551C143.863 42.5713 145.363 43.1697 145.363 45.407C145.363 47.6963 143.475 48.9971 140.219 48.9971Z" fill="#C2C4D0"/>
<path d="M155.112 36.4055C155.112 37.4982 154.207 38.4087 153.12 38.4087C152.035 38.4087 151.13 37.5241 151.13 36.4055C151.13 35.2609 152.061 34.4023 153.12 34.4023C154.181 34.4023 155.112 35.2868 155.112 36.4055ZM151.441 36.4055C151.441 37.3421 152.191 38.0965 153.095 38.0965C154.026 38.0965 154.776 37.316 154.776 36.4055C154.776 35.469 154.026 34.7406 153.095 34.7406C152.216 34.7406 151.441 35.469 151.441 36.4055ZM152.372 35.2868H153.147C153.406 35.2868 153.923 35.2868 153.923 35.8852C153.923 36.3014 153.664 36.3795 153.508 36.4315C153.819 36.4575 153.845 36.6657 153.87 36.9518C153.896 37.134 153.923 37.4461 153.974 37.5502H153.508C153.508 37.4461 153.431 36.8738 153.431 36.8477C153.406 36.7177 153.354 36.6657 153.199 36.6657H152.811V37.5761H152.372V35.2868ZM152.785 36.2755H153.12C153.406 36.2755 153.457 36.0673 153.457 35.9633C153.457 35.6511 153.25 35.6511 153.12 35.6511H152.76V36.2755H152.785Z" fill="#C2C4D0"/>
<path fill-rule="evenodd" clip-rule="evenodd" d="M29.5358 36.5695C29.5358 36.1013 29.2773 35.6591 28.8636 35.425L17.9272 29.0512C17.7462 28.9471 17.5394 28.8951 17.3326 28.8691C17.3067 28.8691 17.2291 28.8691 17.2291 28.8691C17.0223 28.8691 16.8155 28.9471 16.6345 29.0512L5.67221 35.3989C5.25854 35.6331 5 36.0754 5 36.5695L5.02585 53.6356C5.02585 53.8698 5.15513 54.1039 5.36196 54.2079C5.5688 54.3381 5.82734 54.3381 6.00832 54.2079L12.5236 50.4617C12.9373 50.2277 13.1959 49.7854 13.1959 49.3171V41.3304C13.1959 40.8621 13.4544 40.4198 13.8681 40.1858L16.6345 38.5728C16.8413 38.4427 17.074 38.3906 17.3067 38.3906C17.5394 38.3906 17.7721 38.4427 17.9531 38.5728L20.7195 40.1858C21.1331 40.4198 21.3918 40.8621 21.3918 41.3304V49.3171C21.3918 49.7854 21.6503 50.2277 22.0639 50.4617L28.5276 54.2079C28.7343 54.3381 28.9928 54.3381 29.1997 54.2079C29.4066 54.1039 29.5358 53.8698 29.5358 53.6356V36.5695Z" fill="#C2C4D0"/>
<path fill-rule="evenodd" clip-rule="evenodd" d="M82.2277 13.078C82.0208 12.974 81.7623 12.974 81.5812 13.078C81.3745 13.2081 81.2451 13.4162 81.2451 13.6504V30.5603C81.2451 30.7164 81.1676 30.8724 81.0124 30.9766C80.8573 31.0546 80.7023 31.0546 80.5472 30.9766L77.8065 29.3896C77.3928 29.1555 76.9016 29.1555 76.488 29.3896L65.5257 35.7634C65.112 35.9976 64.8535 36.4397 64.8535 36.908V49.6295C64.8535 50.0978 65.112 50.54 65.5257 50.7742L76.488 57.148C76.9016 57.382 77.3928 57.382 77.8065 57.148L88.7688 50.7742C89.1824 50.54 89.4411 50.0978 89.4411 49.6295V17.9169C89.4411 17.4226 89.1824 16.9803 88.7688 16.7462L82.2277 13.078ZM81.2193 45.4411C81.2193 45.5711 81.1676 45.6751 81.0642 45.7272L77.3153 47.9126C77.2119 47.9646 77.0826 47.9646 76.9792 47.9126L73.2303 45.7272C73.1269 45.6751 73.0751 45.5451 73.0751 45.4411V41.0705C73.0751 40.9404 73.1269 40.8363 73.2303 40.7843L76.9792 38.5991C77.0826 38.547 77.2119 38.547 77.3153 38.5991L81.0642 40.7843C81.1676 40.8363 81.2193 40.9665 81.2193 41.0705V45.4411Z" fill="#C2C4D0"/>
<path fill-rule="evenodd" clip-rule="evenodd" d="M118.707 40.9661C119.121 40.7319 119.353 40.2897 119.353 39.8214V36.7256C119.353 36.2573 119.095 35.815 118.707 35.581L107.822 29.2333C107.408 28.9991 106.917 28.9991 106.504 29.2333L95.5413 35.6069C95.1277 35.8411 94.8691 36.2834 94.8691 36.7516V49.4731C94.8691 49.9414 95.1277 50.3837 95.5413 50.6177L106.426 56.8614C106.84 57.0956 107.331 57.0956 107.719 56.8614L114.312 53.1673C114.518 53.0633 114.648 52.8291 114.648 52.5949C114.648 52.3608 114.518 52.1266 114.312 52.0226L103.298 45.6488C103.091 45.5188 102.962 45.3107 102.962 45.0765V41.0962C102.962 40.862 103.091 40.6279 103.298 40.5238L106.736 38.5466C106.943 38.4166 107.202 38.4166 107.408 38.5466L110.847 40.5238C111.054 40.6539 111.183 40.862 111.183 41.0962V44.218C111.183 44.4522 111.313 44.6862 111.519 44.7903C111.726 44.9204 111.985 44.9204 112.192 44.7903L118.707 40.9661Z" fill="#C2C4D0"/>
<path fill-rule="evenodd" clip-rule="evenodd" d="M106.995 40.3681C107.072 40.3161 107.176 40.3161 107.254 40.3681L109.348 41.5908C109.425 41.6429 109.477 41.721 109.477 41.825V44.2704C109.477 44.3745 109.425 44.4526 109.348 44.5046L107.254 45.7273C107.176 45.7793 107.072 45.7793 106.995 45.7273L104.901 44.5046C104.823 44.4526 104.771 44.3745 104.771 44.2704V41.825C104.771 41.721 104.823 41.6429 104.901 41.5908L106.995 40.3681Z" fill="#C2C4D0"/>
<path d="M47.8654 29.2859C47.4516 29.0518 46.9604 29.0518 46.5467 29.2859L35.662 35.6076C35.2483 35.8418 35.0156 36.284 35.0156 36.7524V49.4217C35.0156 49.8901 35.2741 50.3322 35.662 50.5664L46.5467 56.8882C46.9604 57.1222 47.4516 57.1222 47.8654 56.8882L58.7499 50.5664C59.1637 50.3322 59.3963 49.8901 59.3963 49.4217V36.7524C59.3963 36.284 59.1378 35.8418 58.7499 35.6076L47.8654 29.2859Z" fill="#C2C4D0"/>
<path d="M58.7765 35.607L47.8401 29.2853C47.7367 29.2332 47.6074 29.1812 47.504 29.1553L35.249 50.2537C35.3524 50.3837 35.4817 50.4877 35.6109 50.5658L46.5474 56.8876C46.8577 57.0696 47.2196 57.1216 47.5556 57.0176L59.0609 35.8412C58.9833 35.7372 58.88 35.6591 58.7765 35.607Z" fill="#C2C4D0"/>
<path d="M58.777 50.5658C59.0873 50.3836 59.32 50.0714 59.4234 49.7332L47.4527 29.1292C47.1425 29.0771 46.8063 29.1031 46.522 29.2852L35.6631 35.5809L47.3751 57.0696C47.5302 57.0435 47.7113 56.9914 47.8665 56.9135L58.777 50.5658Z" fill="#C2C4D0"/>
</g>
</g>
<defs>
<clipPath id="clip0_1341_101">
<rect width="150" height="44.5946" fill="white" transform="translate(5 13)"/>
</clipPath>
</defs>
</svg>
