<svg width="160" height="70" viewBox="0 0 160 70" fill="none" xmlns="http://www.w3.org/2000/svg">
<g clip-path="url(#clip0_1341_118)">
<path d="M47.6094 39.8359C50.1982 39.8359 52.2969 37.7373 52.2969 35.1484C52.2969 32.5596 50.1982 30.4609 47.6094 30.4609C45.0205 30.4609 42.9219 32.5596 42.9219 35.1484C42.9219 37.7373 45.0205 39.8359 47.6094 39.8359Z" fill="#C2C4D0"/>
<path d="M47.6094 45.6953C60.5536 45.6953 71.0469 40.9733 71.0469 35.1484C71.0469 29.3236 60.5536 24.6016 47.6094 24.6016C34.6652 24.6016 24.1719 29.3236 24.1719 35.1484C24.1719 40.9733 34.6652 45.6953 47.6094 45.6953Z" stroke="#C2C4D0"/>
<path d="M38.4754 40.4215C44.9475 51.6315 54.2836 58.358 59.3281 55.4455C64.3725 52.5331 63.2153 41.0846 56.7432 29.8746C50.2711 18.6646 40.935 11.9381 35.8906 14.8506C30.8461 17.763 32.0034 29.2115 38.4754 40.4215Z" stroke="#C2C4D0"/>
<path d="M38.4754 29.8746C32.0034 41.0846 30.8461 52.5331 35.8906 55.4455C40.935 58.358 50.2711 51.6315 56.7432 40.4215C63.2153 29.2115 64.3725 17.763 59.3281 14.8506C54.2836 11.9381 44.9475 18.6646 38.4754 29.8746Z" stroke="#C2C4D0"/>
</g>
<path d="M82.9874 41.6875V27.142H88.4419C89.5594 27.142 90.4969 27.3362 91.2544 27.7244C92.0168 28.1127 92.592 28.6572 92.9803 29.358C93.3733 30.054 93.5698 30.866 93.5698 31.794C93.5698 32.7268 93.3709 33.5365 92.9732 34.223C92.5802 34.9048 92.0002 35.4328 91.2331 35.8068C90.4661 36.1761 89.5239 36.3608 88.4064 36.3608H84.5215V34.1733H88.0513C88.7047 34.1733 89.2398 34.0833 89.6564 33.9034C90.0731 33.7187 90.3809 33.4512 90.5797 33.1009C90.7833 32.7457 90.8851 32.3101 90.8851 31.794C90.8851 31.2779 90.7833 30.8376 90.5797 30.473C90.3761 30.1037 90.066 29.8243 89.6493 29.6349C89.2327 29.4408 88.6953 29.3438 88.0371 29.3438H85.6223V41.6875H82.9874ZM90.5016 35.0966L94.1025 41.6875H91.1621L87.6252 35.0966H90.5016ZM100.555 41.9006C99.4611 41.9006 98.5165 41.6733 97.7211 41.2188C96.9303 40.7595 96.3219 40.1108 95.8958 39.2727C95.4696 38.4299 95.2566 37.438 95.2566 36.2969C95.2566 35.1747 95.4696 34.1899 95.8958 33.3423C96.3266 32.4901 96.928 31.8272 97.6998 31.3537C98.4715 30.8755 99.3783 30.6364 100.42 30.6364C101.092 30.6364 101.727 30.7453 102.323 30.9631C102.925 31.1761 103.455 31.5076 103.914 31.9574C104.378 32.4072 104.743 32.9801 105.008 33.6761C105.273 34.3674 105.406 35.1913 105.406 36.1477V36.9361H96.464V35.2031H102.941C102.936 34.7107 102.83 34.2727 102.622 33.8892C102.413 33.5009 102.122 33.1955 101.748 32.973C101.379 32.7505 100.948 32.6392 100.455 32.6392C99.9299 32.6392 99.4682 32.767 99.0705 33.0227C98.6728 33.2737 98.3626 33.6051 98.1401 34.017C97.9223 34.4242 97.811 34.8717 97.8063 35.3594V36.8722C97.8063 37.5066 97.9223 38.0511 98.1543 38.5057C98.3863 38.9555 98.7106 39.3011 99.1273 39.5426C99.544 39.7794 100.032 39.8977 100.59 39.8977C100.964 39.8977 101.303 39.8456 101.606 39.7415C101.909 39.6326 102.172 39.474 102.394 39.2656C102.617 39.0573 102.785 38.7992 102.899 38.4915L105.299 38.7614C105.148 39.3958 104.859 39.9498 104.433 40.4233C104.011 40.892 103.472 41.2566 102.813 41.517C102.155 41.7727 101.402 41.9006 100.555 41.9006ZM110.72 41.9077C110.029 41.9077 109.406 41.7846 108.852 41.5384C108.303 41.2874 107.867 40.9181 107.545 40.4304C107.228 39.9427 107.069 39.3414 107.069 38.6264C107.069 38.0109 107.183 37.5019 107.41 37.0994C107.638 36.697 107.948 36.375 108.341 36.1335C108.734 35.892 109.176 35.7098 109.669 35.5866C110.166 35.4588 110.68 35.3665 111.21 35.3097C111.849 35.2434 112.368 35.1842 112.765 35.1321C113.163 35.0753 113.452 34.9901 113.632 34.8764C113.817 34.758 113.909 34.5758 113.909 34.3295V34.2869C113.909 33.7519 113.75 33.3376 113.433 33.044C113.116 32.7505 112.659 32.6037 112.062 32.6037C111.433 32.6037 110.933 32.741 110.564 33.0156C110.199 33.2902 109.953 33.6146 109.825 33.9886L107.425 33.6477C107.614 32.9848 107.926 32.4309 108.362 31.9858C108.798 31.536 109.33 31.1998 109.96 30.9773C110.59 30.75 111.286 30.6364 112.048 30.6364C112.574 30.6364 113.097 30.6979 113.618 30.821C114.139 30.9441 114.614 31.1477 115.045 31.4318C115.476 31.7112 115.822 32.0923 116.082 32.5753C116.347 33.0582 116.48 33.6619 116.48 34.3864V41.6875H114.008V40.1889H113.923C113.767 40.492 113.547 40.776 113.263 41.0412C112.983 41.3016 112.631 41.5123 112.204 41.6733C111.783 41.8295 111.288 41.9077 110.72 41.9077ZM111.388 40.0185C111.904 40.0185 112.351 39.9167 112.73 39.7131C113.109 39.5047 113.4 39.2301 113.604 38.8892C113.812 38.5483 113.916 38.1766 113.916 37.7741V36.4886C113.836 36.5549 113.698 36.6165 113.504 36.6733C113.315 36.7301 113.102 36.7798 112.865 36.8224C112.628 36.8651 112.394 36.9029 112.162 36.9361C111.93 36.9692 111.729 36.9976 111.558 37.0213C111.175 37.0734 110.831 37.1586 110.528 37.277C110.225 37.3954 109.986 37.5611 109.811 37.7741C109.636 37.9825 109.548 38.2524 109.548 38.5838C109.548 39.0573 109.721 39.4148 110.067 39.6562C110.412 39.8977 110.853 40.0185 111.388 40.0185ZM123.824 41.9006C122.735 41.9006 121.8 41.6615 121.018 41.1832C120.242 40.705 119.643 40.0445 119.221 39.2017C118.805 38.3542 118.596 37.3788 118.596 36.2756C118.596 35.1676 118.809 34.1899 119.236 33.3423C119.662 32.4901 120.263 31.8272 121.04 31.3537C121.821 30.8755 122.744 30.6364 123.809 30.6364C124.695 30.6364 125.479 30.7997 126.16 31.1264C126.847 31.4484 127.394 31.9053 127.801 32.4972C128.208 33.0843 128.44 33.7708 128.497 34.5568H126.04C125.94 34.0312 125.703 33.5933 125.329 33.2429C124.96 32.8878 124.465 32.7102 123.845 32.7102C123.319 32.7102 122.858 32.8523 122.46 33.1364C122.062 33.4157 121.752 33.8182 121.53 34.3438C121.312 34.8693 121.203 35.4991 121.203 36.233C121.203 36.9763 121.312 37.6155 121.53 38.1506C121.747 38.6809 122.053 39.0904 122.446 39.3793C122.844 39.6634 123.31 39.8054 123.845 39.8054C124.224 39.8054 124.562 39.7344 124.861 39.5923C125.164 39.4455 125.417 39.2348 125.621 38.9602C125.824 38.6856 125.964 38.3518 126.04 37.9588H128.497C128.435 38.7306 128.208 39.4148 127.815 40.0114C127.422 40.6032 126.887 41.0672 126.21 41.4034C125.533 41.7348 124.738 41.9006 123.824 41.9006ZM136.056 30.7784V32.767H129.784V30.7784H136.056ZM131.333 28.1648H133.904V38.4062C133.904 38.7519 133.956 39.017 134.06 39.2017C134.169 39.3816 134.311 39.5047 134.486 39.571C134.661 39.6373 134.855 39.6705 135.068 39.6705C135.229 39.6705 135.376 39.6586 135.509 39.6349C135.646 39.6113 135.75 39.59 135.821 39.571L136.254 41.581C136.117 41.6283 135.921 41.6804 135.665 41.7372C135.414 41.794 135.106 41.8272 134.742 41.8366C134.098 41.8556 133.518 41.7585 133.002 41.5455C132.485 41.3277 132.076 40.9915 131.773 40.5369C131.475 40.0824 131.328 39.5142 131.333 38.8324V28.1648Z" fill="#C2C4D0"/>
<defs>
<clipPath id="clip0_1341_118">
<rect width="49.2188" height="44.2969" fill="white" transform="translate(23 13)"/>
</clipPath>
</defs>
</svg>
