<svg width="160" height="70" viewBox="0 0 160 70" fill="none" xmlns="http://www.w3.org/2000/svg">
<path d="M144.113 33.3241V39.5302H133.099V42.3945H138.657C141.633 42.3945 144.802 44.607 144.991 48.3789L145 48.737V51.124C144.867 55.6622 141.163 57.3686 138.857 57.4624L138.657 57.4665H127.507V51.2945L138.794 51.2604V48.2597L136.998 48.2608L136.475 48.262L136.347 48.2625L136.155 48.2636L136.087 48.2642L136.003 48.2654L135.978 48.2666C135.979 48.2672 135.998 48.2679 136.03 48.2685L136.109 48.2697C136.155 48.2703 136.21 48.2709 136.268 48.2714L136.386 48.2724L136.151 48.2717C135.677 48.2694 134.865 48.2655 133.543 48.2597C130.864 48.2597 127.384 46.2396 127.176 42.2928L127.166 41.9171V39.7689C127.166 35.698 130.603 33.4581 133.3 33.3299L133.543 33.3241H144.113ZM115.913 33.3241V51.2263H125.222V57.4665H109.025V33.3241H115.913ZM106.195 33.3241V57.4665H99.2725V33.3241H106.195ZM89.8951 33.3241C91.491 33.3241 96.0043 34.4262 96.229 39.2853L96.2377 39.6666V57.4665H89.7929V53.2041H83.5527V57.4665H76.9033V39.6666C76.9033 37.6774 78.4181 33.561 82.858 33.3339L83.2457 33.3241H89.8951ZM53.4639 33.3199L66.409 33.3208C66.6796 33.3505 73.5804 34.1812 73.5804 41.6849C73.5804 49.1886 67.884 49.824 67.6606 49.846L67.6539 49.8466L75.206 57.4665H65.588L59.9662 51.6415V57.4665H53.4639V33.3199ZM87.2873 29.2506L87.3377 29.3003C87.3377 29.3003 86.758 29.7095 86.1442 30.221C66.7757 15.8992 54.9432 22.6509 51.2263 24.4582C34.347 33.8768 39.2248 56.998 39.3241 57.4595L39.3256 57.4665H12.387C12.387 57.4665 13.4099 47.3731 20.5708 35.4382C27.7317 23.5034 39.9394 14.467 49.8623 13.5804C68.9953 11.6638 86.239 28.2244 87.2873 29.2506ZM40.3486 50.6466L44.0313 51.9765C44.2018 53.3121 44.4433 54.5766 44.6967 55.7306L44.8497 56.4094L40.7577 54.9432C40.5872 53.9202 40.4168 52.4539 40.3486 50.6466ZM87.8833 39.0869H85.5986C83.8967 39.0869 83.5873 39.9771 83.5311 40.3009L83.5201 40.3858L83.5187 40.4088L83.5185 46.316H89.7588L89.7583 40.4071C89.7508 40.2871 89.6326 39.0869 87.8833 39.0869ZM11.7049 39.5984L15.6264 41.0306C15.149 42.1345 14.5411 43.5518 14.0996 44.6656L13.9214 45.1225L10 43.6903C10.341 42.7696 11.0571 41.0647 11.7049 39.5984ZM65.1816 39.382H59.9662V44.9022H65.1478C65.1478 44.9022 66.6379 44.3264 66.6379 42.1251C66.6379 39.9238 65.1816 39.382 65.1816 39.382ZM41.8831 38.2344L44.3382 40.1781C44.0654 41.242 43.8581 42.3059 43.7162 43.3698L43.6221 44.1677L40.86 41.9853C41.1328 40.7578 41.4398 39.4961 41.8831 38.2344ZM47.9187 28.7206L49.4531 31.0394C48.853 31.6668 48.2965 32.2943 47.8011 32.9566L47.4413 33.4605L45.8045 31.0053C46.4183 30.221 47.1344 29.4367 47.9187 28.7206ZM23.5034 23.6739L25.9244 25.7881C25.3107 26.4274 24.7161 27.1052 24.155 27.7925L23.6057 28.4819L20.98 26.2314C21.7643 25.3789 22.6168 24.5264 23.5034 23.6739ZM57.296 23.5375L58.0462 25.7881C57.2551 26.0336 56.464 26.3446 55.6729 26.7036L55.0795 26.9816L54.2953 24.6287C55.1477 24.2536 56.1366 23.8785 57.296 23.5375ZM65.2753 22.7191C66.1483 22.7737 67.043 22.8719 67.9596 23.0312L68.6512 23.1624L68.5148 25.2766C67.6145 25.0856 66.7143 24.9601 65.8141 24.9001L65.1389 24.8674L65.2753 22.7191ZM37.2796 13.3077L38.8141 15.6605C38.1492 15.993 37.5034 16.3638 36.8481 16.7586L36.1884 17.1609L34.6198 14.7739C35.5405 14.2283 36.4271 13.7509 37.2796 13.3077ZM65.3435 12.0119C67.3724 12.5916 68.2455 12.9888 68.5948 13.1747L68.6512 13.2054L68.5148 15.49C67.7873 15.1945 67.0599 14.9141 66.3223 14.6489L65.2071 14.2624L65.3435 12.0119ZM52.3175 10L52.9995 12.0801H52.6585C51.9168 12.0801 51.1752 12.0993 50.4335 12.152L49.6918 12.2165L49.0439 10.2046C50.1692 10.0682 51.2604 10 52.3175 10Z" fill="#C2C4D0"/>
</svg>
